<?xml version="1.0" ?><!DOCTYPE svg  PUBLIC '-//W3C//DTD SVG 1.1//EN'  'http://www.w3.org/Graphics/SVG/1.1/DTD/svg11.dtd'><svg height="2048px" style="shape-rendering:geometricPrecision; text-rendering:geometricPrecision; image-rendering:optimizeQuality; fill-rule:evenodd; clip-rule:evenodd" viewBox="0 0 2048 2048" width="2048px" xml:space="preserve" xmlns="http://www.w3.org/2000/svg" xmlns:xlink="http://www.w3.org/1999/xlink"><defs><style type="text/css">
   <![CDATA[
    .fil2 {fill:none}
    .fil0 {fill:#E6E6E5}
    .fil1 {fill:#F45A52;fill-rule:nonzero}
   ]]>
  </style></defs><g id="Layer_x0020_1"><path class="fil0" d="M1730.09 527.999l-703.24 638.801 -10.7492 9.76418 -10.7516 -9.76418 -701.191 -636.939c-0.103937,0.185433 -0.16063,0.366142 -0.16063,0.53504l-0.0968505 1018.46c0,0.356693 0.270473,0.78189 0.701575,1.17402 0.830316,0.753544 2.08347,1.22244 3.54922,1.22244l1431.5 0c1.45866,0 2.70827,-0.47126 3.53977,-1.22717 0.437008,-0.396851 0.711024,-0.820867 0.711024,-1.16929l0.0968505 -1018.46c0,-0.355512 -0.271654,-0.783071 -0.7063,-1.17756 -0.826772,-0.751182 -2.07638,-1.2189 -3.54449,-1.2189l-9.6567 0z"/><g id="_510564144"><path class="fil1" d="M308.251 496.078l9.76772 0 34.9477 32.0008 -44.7154 0c-1.47756,0 -2.72953,0.465355 -3.55394,1.21417 -0.429922,0.389764 -0.696851,0.817323 -0.696851,1.18228l0 884.388 0 102.821 0 0.0165354 0 34.141c-7.9878,-0.904725 -15.2504,-4.31811 -20.7992,-9.35906 -6.90237,-6.27166 -11.2016,-15.0437 -11.2016,-24.7984l0 -987.209c0,-9.75473 4.28859,-18.5291 11.1969,-24.8067 6.51497,-5.91851 15.391,-9.59056 25.0547,-9.59056zm1434.94 1022.86l0.0968505 -0.0850394c0.437008,-0.396851 0.711024,-0.820867 0.711024,-1.16929l0 -987.209c0,-0.355512 -0.271654,-0.783071 -0.7063,-1.17756 -0.826772,-0.751182 -2.07638,-1.2189 -3.54449,-1.2189l-54.0957 0 35.5193 -32.0008 18.5764 0c9.66379,0 18.5339,3.6815 25.0453,9.59528 6.91418,6.28111 11.2063,15.0602 11.2063,24.802l0 987.209c0,9.73938 -4.30158,18.5173 -11.211,24.7937 -5.73189,5.20748 -13.2933,8.68465 -21.5977,9.44528l0 -32.9847z" id="_510564264"/><polygon class="fil1" id="_510564672" points="319.002,500.266 769.57,909.546 769.594,909.569 1016.1,1133.49 1310.33,866.22 1714.7,501.91 1734.7,523.89 1026.85,1166.88 1016.1,1176.64 1005.35,1166.88 297.501,523.89 "/></g><polygon class="fil0" points="313.135,496.078 1016.1,1133.41 1721.17,496.078 "/></g><rect class="fil2" height="2048" width="2048"/></svg>